<svg width="200" height="50" viewBox="0 0 200 50" fill="none" xmlns="http://www.w3.org/2000/svg">
<path fill-rule="evenodd" clip-rule="evenodd" d="M0.185185 28.2612C0 28.2612 0 28.2612 0 28.2612C3.92481 56.171 45.682 55.8965 50 28.2612C49.8148 28.2612 49.8148 28.2612 49.8148 28.2612C47.963 28.2612 46.2963 28.4464 44.4444 28.8168C39.9178 48.9808 9.84407 49.1483 5.74074 28.6316C3.88889 28.4464 2.03704 28.2612 0.185185 28.2612Z" fill="white"/>
<path fill-rule="evenodd" clip-rule="evenodd" d="M0 21.0389H0.185185C2.03704 21.0389 3.7037 20.8537 5.55556 20.4833C10.0437 0.49087 39.9069 0.0640278 44.0741 20.4833C45.7407 20.8537 47.5926 21.0389 49.4444 21.0389H49.6296C46.1194 -7.04302 3.90498 -6.72985 0 21.0389Z" fill="white"/>
<path fill-rule="evenodd" clip-rule="evenodd" d="M45.5554 24.5575C37.4073 23.4464 29.9999 19.1872 24.9999 12.5205C19.9999 19.1872 12.5925 23.4464 4.44434 24.5575C12.5925 25.6687 20.1851 30.1131 24.9999 36.7798C29.9999 30.1131 37.4073 25.6687 45.5554 24.5575Z" fill="white"/>
<g clip-path="url(#clip0_3_492)">
<path d="M68.34 29.43V25.38H73.11C74.07 25.38 74.84 25.09 75.42 24.51C76 23.91 76.29 23.13 76.29 22.17C76.29 21.25 76 20.51 75.42 19.95C74.84 19.39 74.07 19.11 73.11 19.11H68.34V15.06H73.14C74.8 15.06 76.25 15.35 77.49 15.93C78.73 16.51 79.69 17.34 80.37 18.42C81.05 19.48 81.39 20.73 81.39 22.17C81.39 23.63 81.05 24.91 80.37 26.01C79.69 27.09 78.73 27.93 77.49 28.53C76.27 29.13 74.82 29.43 73.14 29.43H68.34ZM64.8 36V15.06H69.75V36H64.8ZM95.8317 27.66V25.41C95.8317 24.65 95.6317 24.04 95.2317 23.58C94.8317 23.1 94.2317 22.86 93.4317 22.86C92.5317 22.86 91.6817 23.16 90.8817 23.76C90.0817 24.36 89.3217 25.4 88.6017 26.88L88.1217 22.95C88.6417 22.07 89.2117 21.34 89.8317 20.76C90.4517 20.16 91.1317 19.71 91.8717 19.41C92.6317 19.11 93.4617 18.96 94.3617 18.96C96.1417 18.96 97.6117 19.51 98.7717 20.61C99.9317 21.69 100.512 23.29 100.512 25.41V27.66H95.8317ZM84.7017 36V19.32H89.2017L89.3817 22.32V36H84.7017ZM111.773 36.36C109.993 36.36 108.463 36.01 107.183 35.31C105.903 34.61 104.913 33.61 104.213 32.31C103.533 31.01 103.193 29.46 103.193 27.66C103.193 25.84 103.533 24.29 104.213 23.01C104.913 21.71 105.903 20.71 107.183 20.01C108.463 19.31 109.993 18.96 111.773 18.96C114.453 18.96 116.543 19.73 118.043 21.27C119.563 22.81 120.323 24.94 120.323 27.66C120.323 29.46 119.983 31.01 119.303 32.31C118.623 33.61 117.643 34.61 116.363 35.31C115.083 36.01 113.553 36.36 111.773 36.36ZM111.773 32.58C112.973 32.58 113.913 32.14 114.593 31.26C115.293 30.38 115.643 29.18 115.643 27.66C115.643 26.12 115.293 24.92 114.593 24.06C113.913 23.18 112.973 22.74 111.773 22.74C110.553 22.74 109.593 23.18 108.893 24.06C108.213 24.92 107.873 26.12 107.873 27.66C107.873 29.18 108.213 30.38 108.893 31.26C109.593 32.14 110.553 32.58 111.773 32.58ZM128.945 36V13.8H133.625V36H128.945ZM123.545 36V32.22H139.085V36H123.545ZM125.645 17.58V13.8H131.285V17.58H125.645ZM148.457 36V19.32H153.137V36H148.457ZM143.057 36V32.22H158.597V36H143.057ZM145.157 23.1V19.32H150.797V23.1H145.157ZM148.277 17.1V12.72H153.257V17.1H148.277ZM173.579 36V25.71C173.579 24.85 173.359 24.16 172.919 23.64C172.479 23.12 171.899 22.86 171.179 22.86C170.359 22.86 169.599 23.14 168.899 23.7C168.219 24.24 167.499 25.18 166.739 26.52L166.079 22.56C166.839 21.26 167.759 20.34 168.839 19.8C169.919 19.24 171.019 18.96 172.139 18.96C173.419 18.96 174.509 19.23 175.409 19.77C176.329 20.31 177.029 21.06 177.509 22.02C178.009 22.98 178.259 24.11 178.259 25.41V36H173.579ZM162.449 36V19.32H166.979L167.129 22.29V36H162.449ZM189.97 36.36C188.17 36.36 186.62 36.01 185.32 35.31C184.04 34.61 183.05 33.61 182.35 32.31C181.65 31.01 181.3 29.46 181.3 27.66C181.3 25.84 181.65 24.28 182.35 22.98C183.05 21.68 184.06 20.69 185.38 20.01C186.72 19.31 188.33 18.96 190.21 18.96C193.15 18.96 195.28 19.8 196.6 21.48C197.94 23.14 198.5 25.43 198.28 28.35H185.02L185.05 25.14H193.51C193.45 24.38 193.11 23.77 192.49 23.31C191.87 22.83 191.1 22.59 190.18 22.59C188.74 22.59 187.68 23.04 187 23.94C186.32 24.84 185.98 26.15 185.98 27.87C185.98 28.73 186.13 29.52 186.43 30.24C186.73 30.96 187.17 31.54 187.75 31.98C188.35 32.4 189.09 32.61 189.97 32.61C190.91 32.61 191.7 32.38 192.34 31.92C193 31.46 193.4 30.88 193.54 30.18H198.22C198.02 32.08 197.18 33.59 195.7 34.71C194.24 35.81 192.33 36.36 189.97 36.36Z" fill="white"/>
</g>
<defs>
<clipPath id="clip0_3_492">
<rect width="135" height="50" fill="white" transform="translate(65)"/>
</clipPath>
</defs>
</svg>
