<svg width="192" height="192" viewBox="0 0 192 192" fill="none" xmlns="http://www.w3.org/2000/svg">
<rect width="192" height="192" rx="13" fill="white"/>
<g filter="url(#filter0_d_2014_67)">
<path fill-rule="evenodd" clip-rule="evenodd" d="M38.8337 103.68C38.3999 103.68 38.3999 103.68 38.3999 103.68C47.5934 170.568 145.405 169.911 155.52 103.68C155.086 103.68 155.086 103.68 155.086 103.68C150.748 103.68 146.844 104.124 142.507 105.011C131.903 153.336 61.4587 153.738 51.847 104.568C47.5092 104.124 43.1715 103.68 38.8337 103.68Z" fill="#5BD0F4"/>
<path fill-rule="evenodd" clip-rule="evenodd" d="M38.3999 88.3199H38.8369C43.2071 88.3199 47.1402 87.8785 51.5103 86.9957C62.1017 39.3441 132.575 38.3267 142.409 86.9957C146.343 87.8785 150.713 88.3199 155.083 88.3199H155.52C147.236 21.3872 47.6152 22.1336 38.3999 88.3199Z" fill="#5BD0F4"/>
<path fill-rule="evenodd" clip-rule="evenodd" d="M145.92 95.7801C126.512 93.1419 108.869 83.0289 96.9599 67.1999C85.0507 83.0289 67.4075 93.1419 47.9999 95.7801C67.4075 98.4182 85.4918 108.971 96.9599 124.8C108.869 108.971 126.512 98.4182 145.92 95.7801Z" fill="#283D74"/>
</g>
<defs>
<filter id="filter0_d_2014_67" x="25.1999" y="28.1999" width="151.52" height="149.6" filterUnits="userSpaceOnUse" color-interpolation-filters="sRGB">
<feFlood flood-opacity="0" result="BackgroundImageFix"/>
<feColorMatrix in="SourceAlpha" type="matrix" values="0 0 0 0 0 0 0 0 0 0 0 0 0 0 0 0 0 0 127 0" result="hardAlpha"/>
<feOffset dx="4" dy="7"/>
<feGaussianBlur stdDeviation="8.6"/>
<feComposite in2="hardAlpha" operator="out"/>
<feColorMatrix type="matrix" values="0 0 0 0 0 0 0 0 0 0 0 0 0 0 0 0 0 0 0.25 0"/>
<feBlend mode="normal" in2="BackgroundImageFix" result="effect1_dropShadow_2014_67"/>
<feBlend mode="normal" in="SourceGraphic" in2="effect1_dropShadow_2014_67" result="shape"/>
</filter>
</defs>
</svg>
